<?xml version="1.0" standalone="no"?>
<!DOCTYPE svg PUBLIC "-//W3C//DTD SVG 20010904//EN"
 "http://www.w3.org/TR/2001/REC-SVG-20010904/DTD/svg10.dtd">
<svg version="1.0" xmlns="http://www.w3.org/2000/svg"
 width="55px" height="55px" viewBox="0 0 225.000000 225.000000" 
 preserveAspectRatio="xMidYMid meet">

<g transform="translate(0.000000,225.000000) scale(0.100000,-0.100000)"
fill="#000000" stroke="none">
<path d="M1 1778 c0 -416 2 -466 14 -413 39 180 150 332 292 401 51 25 69 29
153 29 115 0 167 -21 246 -100 237 -236 143 -731 -169 -885 -228 -112 -470 33
-527 315 -4 22 -8 -220 -9 -542 l-1 -583 1125 0 1125 0 0 390 c0 388 0 390
-20 370 -11 -11 -30 -22 -42 -25 -13 -3 -81 -19 -153 -36 -77 -18 -142 -28
-161 -24 -53 9 -79 50 -140 215 -31 85 -60 159 -64 164 -5 4 -34 -27 -66 -70
-172 -236 -162 -225 -202 -222 -34 3 -40 9 -79 73 -91 150 -86 169 95 362 75
80 139 149 140 154 2 5 -28 97 -68 204 -93 254 -92 250 -75 290 16 40 41 55
92 55 65 0 95 -28 185 -174 46 -75 86 -136 89 -136 3 0 66 64 139 141 81 85
148 148 169 156 72 30 138 -13 115 -76 -6 -15 -49 -79 -95 -142 -47 -63 -113
-151 -146 -197 l-61 -83 78 -127 c179 -292 263 -427 266 -431 2 -2 4 316 4
707 l0 712 -1125 0 -1125 0 1 -472z m1104 207 c25 -24 25 -26 25 -202 0 -232
-6 -223 140 -223 69 0 111 -4 116 -11 3 -6 6 -55 5 -108 -3 -148 9 -141 -227
-141 -214 0 -242 6 -262 57 -6 16 -14 149 -18 311 -6 268 -6 284 12 303 27 30
51 38 122 38 54 1 66 -2 87 -24z m-932 -1466 c33 -18 37 -28 37 -108 0 -89
-14 -111 -71 -111 -54 0 -69 26 -69 116 0 66 2 74 26 93 30 24 46 26 77 10z
m407 -4 c0 -8 -9 -15 -20 -15 -11 0 -20 7 -20 15 0 8 9 15 20 15 11 0 20 -7
20 -15z m-140 -85 l0 -90 35 0 c28 0 35 -4 35 -20 0 -18 -7 -20 -55 -20 l-55
0 0 110 c0 103 1 110 20 110 19 0 20 -7 20 -90z m781 58 l13 -31 15 31 c10 22
22 32 38 32 13 0 23 -2 23 -4 0 -2 -11 -24 -25 -49 l-26 -46 31 -60 30 -61
-24 0 c-17 0 -27 8 -36 30 -18 44 -28 45 -44 5 -10 -24 -21 -35 -35 -35 -27 0
-26 12 6 67 l26 45 -26 54 -27 54 24 0 c17 0 27 -9 37 -32z m309 3 c0 -26 3
-28 38 -27 l37 1 3 -82 c3 -78 2 -83 -18 -83 -18 0 -20 6 -20 71 0 62 -2 70
-17 67 -15 -3 -19 -16 -21 -71 -3 -59 -5 -67 -22 -67 -19 0 -20 8 -20 110 0
103 1 110 20 110 15 0 20 -7 20 -29z m-1172 -108 c3 -78 2 -83 -18 -83 -18 0
-20 6 -20 70 0 53 -3 70 -14 70 -19 0 -26 -22 -26 -86 0 -47 -2 -54 -20 -54
-18 0 -20 7 -20 78 0 43 2 81 5 84 3 3 29 5 58 4 l52 -1 3 -82z m222 2 c0 -78
-2 -85 -20 -85 -18 0 -20 7 -20 85 0 78 2 85 20 85 18 0 20 -7 20 -85z m80 75
c0 -6 8 -5 20 2 15 10 25 10 38 2 13 -9 18 -28 20 -88 3 -71 1 -76 -18 -76
-18 0 -20 6 -20 71 0 62 -2 70 -17 67 -15 -3 -19 -16 -21 -71 -3 -59 -5 -67
-22 -67 -18 0 -20 7 -20 85 0 78 2 85 20 85 11 0 20 -5 20 -10z m220 -5 c6 -8
13 -29 13 -47 2 -32 1 -33 -40 -36 -30 -2 -43 -8 -43 -18 0 -18 32 -32 38 -16
5 16 42 15 42 -1 0 -37 -68 -51 -102 -20 -23 21 -25 99 -2 131 18 26 75 30 94
7z m240 0 c6 -8 13 -29 13 -47 2 -32 1 -33 -40 -36 -30 -2 -43 -8 -43 -18 0
-18 32 -32 38 -16 5 16 42 15 42 -1 0 -37 -68 -51 -102 -20 -23 21 -25 99 -2
131 18 26 75 30 94 7z m322 -2 c10 -9 18 -22 18 -30 0 -18 -30 -16 -45 4 -19
26 -35 5 -35 -48 0 -37 4 -49 15 -49 9 0 18 7 21 15 8 19 44 20 44 1 0 -25
-30 -46 -64 -46 -46 0 -56 16 -56 85 0 34 5 66 12 73 17 17 68 15 90 -5z m306
5 c7 -7 12 -41 12 -83 l0 -71 -55 -2 c-41 -1 -57 3 -62 13 -11 29 6 61 42 78
19 9 35 23 35 32 0 17 -25 21 -35 5 -9 -15 -35 -12 -35 3 0 22 22 37 55 37 17
0 36 -5 43 -12z m164 -2 c4 -6 8 -44 8 -83 0 -66 -2 -73 -20 -73 -18 0 -20 7
-20 71 0 62 -2 70 -17 67 -15 -3 -19 -16 -21 -71 -3 -59 -5 -67 -22 -67 -18 0
-20 7 -20 84 l0 84 53 0 c28 0 55 -5 59 -12z m178 -3 c0 -7 -6 -13 -14 -13 -9
0 -14 -12 -14 -35 0 -44 -16 -65 -50 -65 -35 0 -20 -12 25 -19 32 -5 38 -11
41 -34 3 -21 -2 -29 -23 -37 -39 -15 -81 -12 -100 6 -12 12 -13 19 -4 30 6 7
8 18 4 24 -4 6 -1 18 6 26 9 11 9 18 1 26 -17 17 -15 74 3 92 20 20 125 19
125 -1z m124 -2 c10 -11 16 -31 14 -48 -3 -24 -8 -28 -40 -31 -30 -3 -38 -7
-38 -23 0 -20 24 -26 35 -9 8 13 45 13 45 1 0 -34 -81 -56 -108 -29 -18 18
-15 123 4 142 21 22 67 20 88 -3z"/>
<path d="M121 476 c-7 -9 -11 -38 -9 -73 3 -54 5 -58 28 -58 23 0 25 4 28 58
3 54 -8 87 -28 87 -4 0 -13 -6 -19 -14z"/>
<path d="M817 433 c-14 -13 -6 -23 18 -23 18 0 23 4 19 15 -6 16 -26 20 -37 8z"/>
<path d="M1057 433 c-13 -12 -7 -23 13 -23 11 0 20 7 20 15 0 15 -21 21 -33 8z"/>
<path d="M1698 369 c-24 -14 -23 -39 2 -39 15 0 20 7 20 25 0 28 1 28 -22 14z"/>
<path d="M1997 433 c-10 -9 -8 -51 2 -57 15 -9 33 22 26 44 -6 20 -16 25 -28
13z"/>
<path d="M1980 280 c0 -5 14 -10 30 -10 17 0 30 5 30 10 0 6 -13 10 -30 10
-16 0 -30 -4 -30 -10z"/>
<path d="M2157 434 c-13 -13 -7 -24 14 -24 11 0 19 5 17 12 -5 14 -22 21 -31
12z"/>
<path d="M294 1640 c-31 -12 -72 -66 -86 -113 -17 -61 -14 -210 6 -287 36
-133 138 -277 200 -282 71 -5 114 25 143 101 29 74 24 234 -11 335 -34 99 -66
155 -117 201 -57 51 -91 63 -135 45z"/>
</g>
</svg>
