<?xml version="1.0" standalone="yes"?>
<svg xmlns="http://www.w3.org/2000/svg" width="512" height="512">
<path style="fill:#ffffff; stroke:none;" d="M0 0L0 512L117 512L117 511C80.6873 509.437 49.7641 478.851 43.4244 444C40.4102 427.43 41.161 408.703 42.831 392C47.1919 348.386 56.8091 300.521 91.0394 269.87C107.157 255.438 137.747 241.466 160 247.789C172.708 251.4 183.8 261.884 195 268.547C214.75 280.296 239.865 288.033 263 285.83C280.014 284.21 298.211 279.141 313 270.395C329.02 260.921 343.484 246.536 363 247.015C435.622 248.794 463.219 328.451 468.086 389C469.132 402.021 470.817 416.026 469.285 429C464.556 469.064 439.54 510.055 394 511L394 512L512 512L512 0L268 0L268 1C287.671 1.4061 308.472 11.0934 324 22.6296C386.507 69.0675 392.9 157.188 338 212C327.799 222.185 316.138 230.383 303 236.306C288.739 242.734 272.722 246.975 257 247C201.196 247.09 149.203 213.282 133.427 158C114.286 90.9215 161.113 2.56662 237 1L215 0L167 0L0 0z"/>
<path style="fill:#010101; stroke:none;" d="M237 0.425171C217.907 3.02414 200.117 8.70746 184 19.5193C112.316 67.6084 110.715 174.953 181 225.09C193.099 233.721 206.605 239.791 221 243.373C235.023 246.863 250.585 248.438 265 246.715C284.384 244.396 302.436 238.598 319 228.189C332.209 219.888 343.908 208.561 353.115 196C415.565 110.797 342.073 -13.8775 237 0.425171z"/>
<path style="fill:#ffffff; stroke:none;" d="M239 31.4283C182.001 39.5937 146.717 98.5993 164.029 153C169.043 168.759 179.206 181.702 191 192.961C200.194 201.738 211.891 208.222 224 211.975C238.543 216.481 254.015 217.04 269 214.725C281.678 212.767 293.422 207.844 304 200.656C315.5 192.841 324.863 182.706 332.305 171C373.834 105.676 313.224 20.7951 239 31.4283z"/>
<path style="fill:#010101; stroke:none;" d="M143 247.424C66.6649 257.57 42 340.981 42 408C42 440.951 44.5025 470.996 72 493.535C99.0937 515.744 134.34 512 167 512L320 512C346.229 512 375.18 515.41 401 510.54C409.906 508.861 419.065 505.974 427 501.561C476.45 474.057 472.93 415.395 465.424 367C462.416 347.601 457.953 327.715 449.244 310C441.495 294.238 432.733 279.405 419 268.084C402.223 254.253 372.262 241.463 350 247.789C336.355 251.666 324.093 263.244 312 270.395C293.989 281.046 268.997 288.2 248 285.715C229.807 283.561 211.816 277.956 196 268.547C178.474 258.121 164.708 244.539 143 247.424z"/>
<path style="fill:#ffffff; stroke:none;" d="M145 278.428C87.225 286.609 73 360.407 73 409C73 432.007 72.4562 454.959 93 470.239C115.718 487.137 150.365 482 177 482L318 482C343.313 482 371.144 485.073 396 479.789C453.007 467.671 441.143 394.085 430.87 352C428.318 341.542 425.145 330.563 420.111 321C413.733 308.883 406.389 297.091 395 289.043C386.269 282.874 370.007 275.749 359 278.42C343.202 282.252 328.311 298.024 313 304.573C285.426 316.365 255.341 320.14 226 313.575C207.782 309.498 190.804 302.005 175 292.192C165.919 286.553 156.392 276.815 145 278.428z"/>
</svg>
